<svg id="Calque_1" data-name="Calque 1" xmlns="http://www.w3.org/2000/svg" viewBox="0 0 74 74"><defs><style>.cls-1{fill:#fff;}</style></defs><title>Plan de travail 32</title><path class="cls-1" d="M37,28.62A8.38,8.38,0,1,0,45.38,37,8.39,8.39,0,0,0,37,28.62Z"/><path class="cls-1" d="M47.45,18.34H26.55a8.22,8.22,0,0,0-8.2,8.21v20.9a8.22,8.22,0,0,0,8.2,8.21h20.9a8.22,8.22,0,0,0,8.21-8.21V26.55A8.22,8.22,0,0,0,47.45,18.34ZM25.1,51.1a2.2,2.2,0,1,1,2.19-2.19A2.19,2.19,0,0,1,25.1,51.1ZM37,48.77A11.77,11.77,0,1,1,48.77,37,11.78,11.78,0,0,1,37,48.77Z"/><path class="cls-1" d="M37,1.26A35.74,35.74,0,1,0,72.74,37,35.74,35.74,0,0,0,37,1.26Zm22,46.19a11.61,11.61,0,0,1-11.6,11.6H26.55A11.61,11.61,0,0,1,15,47.45V26.55A11.61,11.61,0,0,1,26.55,15h20.9a11.61,11.61,0,0,1,11.6,11.6Z"/><path d="M47.45,15H26.55A11.61,11.61,0,0,0,15,26.55v20.9a11.61,11.61,0,0,0,11.6,11.6h20.9a11.61,11.61,0,0,0,11.6-11.6V26.55A11.61,11.61,0,0,0,47.45,15Zm8.21,32.5a8.22,8.22,0,0,1-8.21,8.21H26.55a8.22,8.22,0,0,1-8.2-8.21V26.55a8.22,8.22,0,0,1,8.2-8.21h20.9a8.22,8.22,0,0,1,8.21,8.21Z"/><path d="M37,25.23A11.77,11.77,0,1,0,48.77,37,11.78,11.78,0,0,0,37,25.23Zm0,20.15A8.38,8.38,0,1,1,45.38,37,8.39,8.39,0,0,1,37,45.38Z"/><path d="M25.1,46.71a2.2,2.2,0,1,0,2.19,2.2A2.2,2.2,0,0,0,25.1,46.71Z"/></svg>