<svg id="Calque_1" data-name="Calque 1" xmlns="http://www.w3.org/2000/svg" viewBox="0 0 74 74"><defs><style>.cls-1{fill:#fff;}</style></defs><title>Plan de travail 31</title><path d="M49.58,46.17l1.68-11.6H40.32V25.68a4,4,0,0,1,4.4-4.39h7.66V10.91H39.76c-11.5,0-11.88,11.87-11.88,11.87V34.19H17.6V46.35H27.88V71.87a35.75,35.75,0,0,0,9.49,1.28c.83,0,1.66,0,2.48-.09V46.17Z"/><path class="cls-1" d="M37,.57A36.49,36.49,0,0,0,27.88,72.4V46.35H17.6V34.19H27.88V22.78s.38-11.87,11.88-11.87H52.38V21.29H44.72a4,4,0,0,0-4.4,4.39v8.89H51.26l-1.68,11.6H39.85V73.43A36.49,36.49,0,0,0,37,.57Z"/></svg>