<svg id="Calque_1" data-name="Calque 1" xmlns="http://www.w3.org/2000/svg" viewBox="0 0 392 476"><defs><style>.cls-1{fill:#fff;}</style></defs><title>Plan de travail 30</title><path class="cls-1" d="M10.45,294.71c-4.73,6.66-3.69,15.51,2.29,19.76,3.85,2.72,17.34,3.26,29.27,2.6-3.13-10.65-8.13-23.85-12.21-26.75-6-4.19-14.68-2.22-19.35,4.39M49.9,319,51,323.46l-4.52.38c-3,.3-29.83,2.46-38-3.35C-.48,314.12-2,300.86,5,290.9S25.09,278,34.07,284.3c8.19,5.81,15.07,31.81,15.83,34.74"/><path class="cls-1" d="M109.51,154.66c-4.73,6.66-3.69,15.51,2.28,19.76,4.08,2.89,18.2,3.19,29.28,2.6-3.14-10.65-8.14-23.85-12.21-26.75-6-4.19-14.69-2.22-19.35,4.39M149,179l1.18,4.44-4.57.36c-3,.3-29.82,2.41-38-3.35-9-6.37-10.53-19.63-3.47-29.59s20.09-12.92,29.06-6.6c8.2,5.81,15.07,31.81,15.83,34.74"/><path class="cls-1" d="M208.56,14.61c-4.73,6.66-3.69,15.51,2.34,19.77,3.8,2.71,17.29,3.25,29.22,2.59C237,26.32,232,13.12,228,10.24c-6-4.21-14.73-2.24-19.4,4.37M248.06,39l1.12,4.42-4.52.38c-3.06.28-29.88,2.44-38.07-3.37-9-6.32-10.53-19.63-3.47-29.59S223.2-2.12,232.23,4.22C240.37,10,247.25,36,248.06,39"/><path class="cls-1" d="M85.71,462.93a3.38,3.38,0,0,1,0-1c1.56-16.81,9.68-41.6,23.36-71.62a17.25,17.25,0,0,1-4.87-2.1c-7.46-5.3-9.82-15.44-6.23-24.48a24.07,24.07,0,0,1,2.78-5.15c6.69-9.47,18.84-12.65,27.81-7.38,18.56-34.81,42.16-73.32,68.31-111.32a23.36,23.36,0,0,1,22.08-31.21c27.08-37.28,55.52-72.32,82.22-101.51-8-6.68-9-19.17-2.31-28.69a23.42,23.42,0,0,1,3.68-4.11c7.28-6.53,17.8-7.78,25.42-2.42a16.19,16.19,0,0,1,3.61,3.85c18.91-18.29,35.57-31.88,49.38-40.32a3.27,3.27,0,0,1,3.58,0c.4-8.53-1.25-14.1-4.87-16.69-7.7-5.44-25.14,2.07-49.09,21.14a427.06,427.06,0,0,0-32.91,29.5c-17.29,17-35.91,37.33-55.2,60.47,1.95,5.88,3.12,10.53,3.17,10.72l1.15,4.37-4.54.43c-.62,0-6.22.52-12.9.57-16.77,20.83-33.63,43.22-50.21,66.68C166.81,230,155,247.49,144,264.66c2.16,6.11,3.63,11.58,4.2,13.68l1.14,4.37-4.53.43c-2,.17-7.11.53-12.8.61-17.37,28.18-31.5,53.55-42.48,75.81C59.14,420.78,52,458.42,63.1,466.27c4.43,3.17,12.05,2,22.61-3.34m226.6-359c7.9,1.37,19.32.94,23.53.69a138.34,138.34,0,0,0-6.56-18,54.27,54.27,0,0,0-2.83-5.33A11.38,11.38,0,0,0,323.66,78c-6-4.25-14.67-2.28-19.4,4.38s-3.64,15.35,2.17,19.6l.17.16c1.08.78,3,1.36,5.71,1.86M236.78,244.7c-3.13-10.66-8.15-23.81-12.17-26.69a12.8,12.8,0,0,0-3.41-1.65,12.51,12.51,0,0,0-6.82-.21,15.2,15.2,0,0,0-9.17,6.24,15.55,15.55,0,0,0-2.85,10.75,12.81,12.81,0,0,0,2.48,6.32,13,13,0,0,0,2.65,2.68c4.09,2.85,18.19,3.19,29.29,2.56m-124.29,139a41.66,41.66,0,0,0,6,.89,137.92,137.92,0,0,0,19.28.16c-1.2-4-4.62-15-8.54-22a15.56,15.56,0,0,0-3.69-4.7l-.13-.1c-6-4.08-14.57-2.08-19.22,4.49s-3.69,15.5,2.3,19.7a11.38,11.38,0,0,0,4,1.56m113-271.82c-6-4.25-14.67-2.28-19.4,4.37s-3.64,15.53,2.35,19.72c2.39,1.72,8.92,2.73,18.35,2.85,2.47,0,5,0,7.47-.09,1.16,0,2.34-.11,3.41-.17-.28-.91-.58-1.88-.84-2.84-.74-2.27-1.46-4.41-2.16-6.45-3.41-9.41-6.63-15.62-9.18-17.39M128.1,249.62c-6-4.26-14.67-2.28-19.4,4.38s-3.69,15.5,2.35,19.72c2.34,1.7,8.7,2.71,17.87,2.81,2.18.06,4.45,0,6.83,0,1.78-.06,3.23-.11,4.52-.21-.45-1.58-1-3.16-1.47-4.75-.85-2.63-1.65-4.86-2.45-6.92-3-8.09-6-13.39-8.25-15M58.84,472.3C41.61,460.15,57.08,414.92,73,379.14c12.82-28.63,30.06-60.77,51.31-95.53-8.63-.43-14.52-1.68-17.54-3.87-9-6.34-10.6-19.59-3.52-29.6s20.08-12.93,29.09-6.54c2.77,1.94,5.68,6.47,8.69,13.39,10.33-16,21.29-32.22,32.62-48.2,15.47-21.82,31.37-43,47.26-62.95-8.18-.46-13.79-1.74-16.75-3.79-9-6.37-10.53-19.63-3.5-29.66s20.14-12.91,29.1-6.54c3.2,2.31,6.65,8,10.1,16.86,21.37-25.42,41.87-47.47,60.89-65.56C329.22,30.2,366.67.6,383.89,12.75s1.76,57.37-14.23,93.14C347.75,154.93,312,215.46,269,276.24s-88.1,114.64-127.1,151.64c-28.4,27-65.87,56.61-83.07,44.42"/></svg>