<svg id="Calque_1" data-name="Calque 1" xmlns="http://www.w3.org/2000/svg" viewBox="0 0 141 141"><title>Plan de travail 33</title><path d="M140.34,22.32H129.56V11.54H118.78V.56H.66V118.69H11.44v11H22.21v10.78H140.34Zm-115,107.34H129.56V25.4h7.69v112h-112Zm90.41-14H3.74V3.65h112ZM14.52,118.69H118.78V14.62h7.7v112h-112Z"/><path d="M36.58,39.41h0l2.1-5.68,9.72-1.3,2.13,5.1,6.21-.83h0L52.22,26.56,46,12.68h0l-4.55.61h0l-11,26.93,6.08-.81ZM42,28.54l-1.51.2,3.09-8.32,3,7.5Z"/><polygon points="30.04 40.29 30.04 40.29 30.05 37.7 30.06 35.11 26.4 35.6 19.85 36.48 19.92 26.83 20 16.18 17.84 16.47 14.49 16.92 14.49 16.92 14.49 16.92 14.32 42.4 30.04 40.29 30.04 40.29"/><polygon points="66 68.05 81.71 65.93 81.71 65.93 81.71 65.93 81.74 60.75 76.24 61.49 71.53 62.12 71.67 41.82 71.67 41.82 71.67 41.82 69.42 42.13 66.16 42.56 66 68.05 66 68.05 66 68.05"/><path d="M58,76.57l-2.24.3-3.27.44h0L52.4,92.75A6.65,6.65,0,0,1,51,96.89a5.57,5.57,0,0,1-3.58,2l-.44,0-.26,0a4.08,4.08,0,0,1-3.13-1.36,5.14,5.14,0,0,1-1.21-3.52l.12-15.44-3.12.42-2.39.32-.13,15.66A10.8,10.8,0,0,0,38,100.35c1.34,2.43,3.8,3.91,7.35,3.91a14.91,14.91,0,0,0,2-.14c6.91-.93,10.57-5.88,10.58-11.89L58,76.57Z"/><path d="M68.49,95.3l0-4.86,1.85-.25.86-.12,5.16,9.49L83,98.67,78.52,91.6l-1.81-2.84a7.71,7.71,0,0,0,5.44-7.7c0-5-3-6.65-7-6.65a18.3,18.3,0,0,0-2.4.17l-4.23.57-5.45.74-.17,25.48,5.51-.74Zm.09-15.4,3.6-.48a6.82,6.82,0,0,1,.9-.07c.16,0,.32,0,.47,0a3,3,0,0,1,2.32.78,2.35,2.35,0,0,1,.55,1.7,2.8,2.8,0,0,1-1.83,2.78,8,8,0,0,1-2,.57l-.8.11-3.25.44,0-3Z"/><polygon points="19.89 62.16 26.84 69.53 30 72.89 30.49 72.82 37.71 71.85 37.71 71.85 37.71 71.85 29.13 63.27 25.7 59.83 36.92 46.49 29.72 47.46 21.35 57.61 19.91 59.35 20 48.77 14.49 49.51 14.49 49.51 14.49 49.51 14.32 74.99 19.83 74.25 19.89 62.16"/><path d="M55.24,59.45a6.07,6.07,0,0,1-5,6.19,5.47,5.47,0,0,1-.69,0c-2.57,0-4.35-2-4.35-4.88l.12-15.44-5.51.74-.12,15.66c0,5.41,2.87,9.19,8.54,9.19a15,15,0,0,0,1.95-.14c6.92-.93,10.57-5.88,10.6-11.89l.12-15.66L55.36,44Z"/><polygon points="34.15 79.78 34.15 79.78 14.37 82.44 14.32 87.41 21.45 86.45 21.37 101.09 21.34 106.97 21.34 106.97 21.34 106.97 26.85 106.22 26.88 100.34 26.96 85.71 31.73 85.07 34.1 84.75 34.1 84.75 34.1 84.75 34.13 81.38 34.15 79.78 34.15 79.78"/><polygon points="103.67 95.89 103.69 90.72 97.69 91.52 91.58 92.34 91.59 87.16 102.44 85.7 102.44 85.7 102.44 85.7 102.49 81.49 102.5 80.52 97.37 81.2 91.66 81.97 91.66 77.22 97.71 76.41 103.15 75.68 103.15 75.68 103.15 75.68 103.2 70.49 103.2 70.49 103.2 70.49 86.21 72.78 86.04 98.27 94.43 97.14 103.67 95.89"/></svg>