<?xml version="1.0" standalone="no"?>
<!DOCTYPE svg PUBLIC "-//W3C//DTD SVG 20010904//EN"
 "http://www.w3.org/TR/2001/REC-SVG-20010904/DTD/svg10.dtd">
<svg version="1.0" xmlns="http://www.w3.org/2000/svg"
 width="500.000000pt" height="499.000000pt" viewBox="0 0 500.000000 499.000000"
 preserveAspectRatio="xMidYMid meet">
<g transform="translate(0.000000,499.000000) scale(0.100000,-0.100000)" stroke="none">
<path d="M50 2885 l0 -2055 190 0 190 0 0 -190 0 -190 188 -2 187 -3 3 -187 2
-188 2055 0 2055 0 0 2060 0 2060 -185 0 -185 0 0 185 0 185 -190 0 -190 0 0
190 0 190 -2060 0 -2060 0 0 -2055z m4020 0 l0 -1955 -1958 2 -1957 3 -3 1940
c-1 1067 0 1946 3 1953 3 9 405 12 1960 12 l1955 0 0 -1955z m378 -382 l2
-1953 -1960 0 -1960 0 0 140 0 140 1820 0 1820 0 0 1815 0 1816 138 -3 137 -3
3 -1952z m372 -378 l0 -1955 -1955 0 -1955 0 0 140 0 140 1820 0 1820 0 0
1815 0 1815 135 0 135 0 0 -1955z"/>
<path d="M1531 4509 c-30 -5 -55 -10 -56 -12 -13 -23 -374 -921 -371 -924 2
-2 47 2 101 9 l97 13 35 95 c20 52 37 97 39 99 2 2 66 12 141 22 76 10 152 21
170 24 31 6 31 5 69 -86 36 -88 38 -91 66 -85 15 3 56 8 92 12 35 4 69 10 75
14 8 4 -48 141 -171 418 -205 462 -175 419 -287 401z m75 -392 c26 -64 45
-120 42 -123 -7 -6 -201 -34 -206 -29 -2 2 20 67 49 144 29 78 56 138 60 134
4 -5 29 -61 55 -126z"/>
<path d="M619 4387 l-76 -10 -7 -111 c-3 -61 -6 -261 -6 -444 l0 -333 33 6
c47 8 478 65 494 65 10 0 13 22 13 90 l0 90 -27 -5 c-16 -3 -82 -12 -148 -20
-66 -9 -132 -18 -147 -21 l-28 -6 0 356 c0 279 -3 356 -12 354 -7 0 -47 -6
-89 -11z"/>
<path d="M2401 3489 c-30 -5 -56 -10 -57 -12 -1 -1 -4 -199 -6 -439 -3 -378
-1 -438 11 -438 16 0 444 56 499 65 l32 6 0 84 c0 100 21 93 -185 65 -81 -11
-155 -20 -163 -20 -13 0 -14 40 -9 350 l7 350 -37 -1 c-21 -1 -62 -5 -92 -10z"/>
<path d="M2023 3438 l-62 -10 -3 -301 -3 -302 -27 -45 c-31 -54 -70 -84 -127
-100 -57 -15 -106 -4 -146 34 -53 50 -58 86 -53 394 l4 274 -41 -6 c-22 -3
-64 -8 -92 -12 l-53 -7 -2 -221 c-4 -331 -1 -405 17 -456 27 -77 62 -117 132
-152 56 -27 73 -31 146 -30 198 1 348 100 409 267 20 56 22 83 26 373 l4 312
-34 -1 c-18 -1 -61 -6 -95 -11z"/>
<path d="M1180 3325 c-47 -7 -92 -14 -101 -16 -9 -2 -92 -96 -185 -209 l-169
-205 -3 184 -2 183 -45 -6 c-25 -3 -65 -9 -89 -12 l-43 -6 -7 -105 c-3 -59 -6
-258 -6 -443 l0 -337 63 9 c34 5 77 11 95 14 l32 5 0 212 0 211 117 -124 c65
-69 145 -154 179 -189 l61 -64 124 17 c68 10 126 19 128 22 3 3 -86 96 -197
207 -111 111 -202 206 -202 210 0 5 83 107 185 227 102 121 185 222 185 225 0
7 -16 5 -120 -10z"/>
<path d="M3299 2462 l-256 -35 -5 -441 c-3 -243 -5 -442 -4 -443 0 0 129 16
286 38 157 21 293 39 303 39 15 0 17 11 17 90 l0 90 -37 -6 c-135 -21 -369
-50 -375 -47 -11 6 -10 183 0 183 10 0 297 38 340 46 l32 5 0 84 c0 100 21 93
-185 65 -216 -29 -196 -36 -193 62 l3 83 159 22 c87 11 178 24 202 28 l44 6 0
85 0 84 -37 -1 c-21 -1 -153 -18 -294 -37z"/>
<path d="M2585 2365 c-5 -2 -88 -13 -182 -26 l-173 -22 0 -442 0 -441 85 11
c47 7 88 15 92 19 4 4 9 86 11 182 l4 174 33 0 c18 0 39 2 47 5 9 3 43 -49
103 -160 55 -102 95 -165 105 -165 20 0 182 21 197 26 8 2 -28 67 -92 167 -58
90 -105 169 -105 174 0 6 12 14 26 17 41 11 118 95 137 151 19 56 22 142 6
200 -15 55 -64 100 -129 119 -48 14 -138 20 -165 11z m82 -180 c46 -32 38
-126 -14 -160 -25 -17 -153 -45 -204 -45 l-29 0 0 100 c0 95 1 100 23 105 89
19 197 19 224 0z"/>
<path d="M1928 2277 l-68 -9 0 -292 0 -292 -27 -55 c-40 -77 -95 -113 -173
-114 -67 0 -102 19 -135 76 -19 32 -20 50 -18 333 l2 298 -29 -6 c-16 -3 -59
-8 -95 -12 l-66 -7 3 -331 c3 -311 4 -334 24 -376 26 -57 71 -102 131 -131 39
-19 63 -22 137 -22 233 2 391 129 425 343 6 36 11 188 11 338 l0 272 -27 -1
c-16 -1 -58 -6 -95 -12z"/>
<path d="M940 2144 c-135 -18 -282 -38 -328 -45 l-82 -11 0 -84 0 -84 43 6
c23 3 69 10 102 15 33 5 70 9 83 9 l22 0 -2 -356 -3 -356 35 6 c19 3 60 8 91
12 l56 6 6 355 c3 196 8 357 10 359 2 2 53 11 113 19 60 8 115 17 122 20 8 3
12 30 12 85 0 70 -2 80 -17 79 -10 -1 -128 -16 -263 -35z"/>
</g>
</svg>
