<svg id="Calque_1" data-name="Calque 1" xmlns="http://www.w3.org/2000/svg" viewBox="0 0 347 366"><defs><style>.cls-1{fill:#fff;}</style></defs><title>Plan de travail 24</title><path class="cls-1" d="M87,104.25h0L95.1,82.34l37.48-5L140.79,97l24-3.21h0L147.33,54.7,123.45,1.13h0L105.88,3.49h0L63.53,107.4,87,104.25ZM107.8,62.33l-5.82.78L113.88,31l11.65,29Z"/><polygon class="cls-1" points="61.77 107.64 61.77 107.64 61.81 97.66 61.85 87.66 47.71 89.56 22.45 92.94 22.73 55.73 23.05 14.64 14.71 15.76 1.79 17.5 1.79 17.51 1.79 17.51 1.12 115.81 61.77 107.64 61.77 107.64"/><polygon class="cls-1" points="200.47 214.73 261.08 206.56 261.08 206.56 261.08 206.56 261.19 186.57 239.98 189.43 221.81 191.88 222.37 113.56 222.37 113.56 222.37 113.56 213.67 114.73 201.1 116.42 200.46 214.73 200.47 214.73 200.47 214.73"/><path class="cls-1" d="M169.72,247.6l-8.63,1.16-12.62,1.69h0L148,310a25.44,25.44,0,0,1-5.59,16,21.55,21.55,0,0,1-13.82,7.89c-.57.07-1.13.08-1.7.11-.33,0-.67.07-1,.07a15.85,15.85,0,0,1-12.1-5.24,20,20,0,0,1-4.65-13.56l.47-59.58-12,1.61-9.23,1.24-.47,60.42c0,7.84,1.53,14.79,4.64,20.42,5.18,9.37,14.68,15.05,28.37,15.05a55.35,55.35,0,0,0,7.51-.53c26.68-3.59,40.78-22.69,40.84-45.86l.48-60.42Z"/><path class="cls-1" d="M210.09,319.86l.13-18.75,7.16-1,3.31-.45,19.91,36.59,25.49-3.4L248.77,305.6l-7-11c13.69-4.33,20.89-16,21-29.73.11-19.21-11.45-25.64-26.83-25.64a69.88,69.88,0,0,0-9.27.67l-16.33,2.2-21,2.83-.64,98.31L210,340.41Zm.35-59.41,13.89-1.87c1.15-.15,2.32-.19,3.47-.26.61,0,1.22-.14,1.81-.14,3.6,0,6.91.74,9,3a9.27,9.27,0,0,1,2.12,6.56c0,5.83-3,8.93-7.06,10.75a31.46,31.46,0,0,1-7.75,2.17c-1,.17-2.09.31-3.1.45l-12.53,1.68.09-11.72Z"/><polygon class="cls-1" points="22.63 192.02 49.42 220.44 61.62 233.39 63.51 233.14 91.35 229.4 91.34 229.39 91.34 229.39 58.24 196.29 45 183.05 88.3 131.57 60.51 135.31 28.25 174.46 22.7 181.19 23.02 140.35 1.79 143.22 1.79 143.22 1.78 143.22 1.12 241.52 22.36 238.67 22.63 192.02"/><path class="cls-1" d="M159,181.58c0,12.08-8.23,22.35-19.41,23.86a20.2,20.2,0,0,1-2.64.18c-9.92,0-16.82-7.7-16.79-18.81l.46-59.57-21.26,2.85-.47,60.42C98.78,211.4,109.93,226,131.8,226a57.3,57.3,0,0,0,7.53-.53c26.71-3.58,40.79-22.68,40.89-45.87l.46-60.4L159.42,122Z"/><polygon class="cls-1" points="77.61 259.98 77.61 259.98 1.31 270.26 1.12 289.42 28.63 285.73 28.32 342.21 28.19 364.87 28.2 364.87 28.2 364.87 49.44 362 49.57 339.32 49.9 282.85 68.27 280.38 77.41 279.15 77.41 279.15 77.42 279.15 77.55 266.15 77.61 259.98 77.61 259.98"/><polygon class="cls-1" points="345.8 322.16 345.88 302.17 322.75 305.28 299.16 308.45 299.21 288.45 341.06 282.84 341.06 282.84 341.06 282.84 341.23 266.58 341.27 262.82 321.49 265.49 299.45 268.45 299.48 250.14 322.82 247 343.77 244.18 343.77 244.18 343.77 244.17 344 224.17 344 224.17 344 224.16 278.46 232.98 277.8 331.31 310.14 326.96 345.8 322.16"/></svg>