<svg id="Calque_1" data-name="Calque 1" xmlns="http://www.w3.org/2000/svg" viewBox="0 0 800.37 706.6"><defs><style>.cls-1{fill:#fff;}</style></defs><title>Plan de travail 5</title><path class="cls-1" d="M716.63,645.6H83.74v-144H716.63Zm-622.89-10H706.63v-124H93.74Z"/><path class="cls-1" d="M341.76,86.12l2.79-6.18a14.66,14.66,0,0,0,9.73.79c2.05-.58,3-1.59,2.62-2.75l0-.08c-.33-1.16-1.39-1.49-5.37-1.34-6.15.3-11.07-.07-12.63-5.63l0-.07c-1.42-5,1.55-9.83,8.08-11.66a17.79,17.79,0,0,1,12.19.48l-2.27,6.37a13.81,13.81,0,0,0-8.36-.54C346.67,66,346,67,346.27,68l0,.08c.35,1.24,1.44,1.52,5.48,1.31,6.59-.39,11,.54,12.47,5.63l0,.08c1.56,5.55-1.9,10.08-8.5,11.93A19.7,19.7,0,0,1,341.76,86.12Z"/><path class="cls-1" d="M401,51.81l7.81.55-.74,10.54,10,.7.74-10.54,7.8.54-2,28.17-7.8-.55.75-10.7-10-.7-.75,10.7L399,80Z"/><path class="cls-1" d="M462.4,76.87l0-.08c3.43-7.34,12.13-10.54,20-6.86s11,12.3,7.57,19.65l0,.07c-3.43,7.34-12.13,10.54-20,6.86S459,84.21,462.4,76.87Zm20.28,9.46,0-.07c1.73-3.73.58-8.14-3.33-10s-8,.1-9.69,3.8l0,.07a7.33,7.33,0,0,0,3.35,10C476.9,92,481,90,482.68,86.33Z"/><path class="cls-1" d="M530.48,102.06l8.53,8.63c5,5,5.62,10.9,1.21,15.27l-.06.05c-4.76,4.71-10.85,3.54-15.76-1.42l-2.75-2.78-5.74,5.67-5.5-5.56Zm-1.84,18.1c1.93,2,4.21,2.14,5.79.58l.06-.06c1.72-1.7,1.38-3.82-.57-5.79l-2.61-2.64L526,117.5Z"/><path class="cls-1" d="M573.85,192l3.48,12.76-6.46,1.76-3.48-12.76Z"/><path class="cls-1" d="M568.38,274.88l4,5.48a14.57,14.57,0,0,0-5.5,8.07c-.51,2.07-.08,3.34,1.09,3.63l.08,0c1.18.29,2-.46,3.82-4,2.78-5.5,5.54-9.59,11.14-8.2l.07,0c5.09,1.26,7.77,6.21,6.13,12.78a17.75,17.75,0,0,1-6.43,10.37l-4.42-5.13a13.8,13.8,0,0,0,4.6-7c.46-1.84-.06-2.92-1.08-3.17l-.08,0c-1.25-.31-2,.49-3.84,4.11-2.93,5.92-5.93,9.33-11.06,8.06l-.08,0c-5.6-1.39-7.82-6.64-6.17-13.29A19.73,19.73,0,0,1,568.38,274.88Z"/><path class="cls-1" d="M568.84,343.31l-4.34,6.51L555.71,344l-5.57,8.36,8.8,5.86-4.34,6.51L531.1,349l4.34-6.51,8.93,6,5.57-8.36L541,334.16l4.34-6.51Z"/><path class="cls-1" d="M516.73,384.31l0,.07c4.7,6.6,3.18,15.74-3.92,20.79s-16.11,3.49-20.81-3.12l0-.06c-4.7-6.61-3.18-15.75,3.92-20.79S512,377.71,516.73,384.31Zm-18.24,13,0,.07c2.39,3.35,6.79,4.53,10.3,2s3.84-7,1.48-10.3l0-.07a7.34,7.34,0,0,0-10.33-2C496.45,389.47,496.13,394,498.49,397.27Z"/><path class="cls-1" d="M461.13,431l-11.73,3.14c-6.86,1.83-12.25-.53-13.85-6.53l0-.08c-1.73-6.46,2.31-11.17,9.05-13l3.78-1-2.08-7.8,7.56-2Zm-14.81-10.57c-2.65.71-3.94,2.6-3.37,4.74l0,.08c.63,2.34,2.63,3.1,5.32,2.38l3.58-1-1.93-7.2Z"/><path class="cls-1" d="M361.5,424.23l-12.81-3.29,1.66-6.48,12.81,3.28Z"/><path class="cls-1" d="M292.24,378.44l-6.74.77a14.68,14.68,0,0,0-4.3-8.76c-1.55-1.47-2.87-1.73-3.71-.85l-.05.06c-.84.88-.58,2,1.59,5.29,3.41,5.14,5.61,9.56,1.64,13.74l-.06.06c-3.61,3.8-9.23,3.69-14.14-1a17.76,17.76,0,0,1-5.84-10.72l6.64-1.32a13.81,13.81,0,0,0,3.81,7.46c1.38,1.31,2.58,1.39,3.3.63l.06-.06c.89-.93.57-2-1.68-5.37-3.71-5.47-5.19-9.77-1.55-13.6l.05-.06c4-4.18,9.64-3.53,14.61,1.19A19.78,19.78,0,0,1,292.24,378.44Z"/><path class="cls-1" d="M232.47,345l-3.51-7,9.45-4.74-4.51-9-9.44,4.73-3.51-7,25.23-12.66,3.51,7-9.59,4.82,4.5,9,9.59-4.81,3.51,7Z"/><path class="cls-1" d="M222.69,279.45h-.09c-8.06.82-15.26-5-16.14-13.69s4.93-15.74,13-16.56h.08c8.07-.82,15.27,5,16.15,13.69S230.75,278.63,222.69,279.45Zm-2.27-22.27h-.08c-4.09.41-7.29,3.66-6.85,7.95s4.17,6.79,8.23,6.38h.08a7.34,7.34,0,0,0,6.85-8C228.22,259.27,224.47,256.77,220.42,257.18Z"/><path class="cls-1" d="M209.53,208l3.07-11.75c1.8-6.86,6.51-10.38,12.52-8.81l.08,0c6.47,1.69,8.57,7.54,6.81,14.29l-1,3.78,7.8,2-2,7.57Zm16.5-7.65c.7-2.65-.31-4.71-2.45-5.27l-.08,0c-2.34-.61-4,.75-4.69,3.44l-.94,3.59,7.22,1.89Z"/><path class="cls-1" d="M264.74,124.84l9.18-9.52,4.82,4.64-9.18,9.53Z"/><path class="cls-1" d="M165.08,559.93h4.79v22.94h14.36v4.37H165.08Z"/><path class="cls-1" d="M199.39,581.31v-.08c0-4.45,3.48-6.63,8.51-6.63a17.14,17.14,0,0,1,5.54.86V575c0-2.92-1.8-4.49-5.11-4.49a14.34,14.34,0,0,0-5.89,1.29l-1.25-3.7a17.46,17.46,0,0,1,7.76-1.68c3.08,0,5.38.82,6.83,2.3S218,572.34,218,575v12.21h-4.6v-2.58a8.37,8.37,0,0,1-6.71,3C202.83,587.66,199.39,585.44,199.39,581.31Zm14.12-1.49v-1.4a13,13,0,0,0-4.68-.82c-3,0-4.83,1.29-4.83,3.43v.08c0,2,1.75,3.12,4,3.12C211.13,584.23,213.51,582.44,213.51,579.82Z"/><path class="cls-1" d="M260.08,559.93h4.8v13.73l13-13.73h5.93L272.4,571.67l11.9,15.57h-5.85L269.13,575l-4.25,4.37v7.92h-4.8Z"/><path class="cls-1" d="M298.92,579.75V566.64h4.72v11.7c0,3.2,1.6,5,4.41,5s4.64-1.87,4.64-5.06V566.64h4.76v20.6h-4.76V584a7.41,7.41,0,0,1-6.43,3.62C301.61,587.66,298.92,584.54,298.92,579.75Z"/><path class="cls-1" d="M335.7,558.76h4.72v28.48H335.7Z"/><path class="cls-1" d="M359.65,581.54V570.7H357v-4.06h2.62V561h4.71v5.65h5.54v4.06h-5.54v10.1a2.25,2.25,0,0,0,2.54,2.57,6.29,6.29,0,0,0,2.92-.7v3.86a8.07,8.07,0,0,1-4.25,1.06C362.1,587.59,359.65,586.07,359.65,581.54Z"/><path class="cls-1" d="M386.56,579.75V566.64h4.71v11.7c0,3.2,1.6,5,4.41,5s4.64-1.87,4.64-5.06V566.64h4.76v20.6h-4.76V584a7.39,7.39,0,0,1-6.43,3.62C389.25,587.66,386.56,584.54,386.56,579.75Z"/><path class="cls-1" d="M423.06,566.64h4.72v4.64c1.29-3.08,3.66-5.18,7.29-5v5h-.27c-4.14,0-7,2.7-7,8.16v7.84h-4.72Z"/><path class="cls-1" d="M449.42,577v-.08c0-5.89,4.17-10.73,10.06-10.73,6.56,0,9.87,5.15,9.87,11.08,0,.43,0,.86-.08,1.33H454.14a5.75,5.75,0,0,0,5.93,5.22,7.52,7.52,0,0,0,5.58-2.45l2.77,2.45A10.43,10.43,0,0,1,460,587.7,10.27,10.27,0,0,1,449.42,577Zm15.25-1.52c-.31-3-2.1-5.43-5.22-5.43-2.89,0-4.92,2.23-5.35,5.43Z"/><path class="cls-1" d="M508.31,584.54l2.11-3.19a11.68,11.68,0,0,0,6.75,2.53c2,0,3.19-.86,3.19-2.22v-.08c0-1.6-2.18-2.14-4.6-2.89-3-.85-6.43-2.1-6.43-6v-.08c0-3.9,3.23-6.28,7.33-6.28a14.28,14.28,0,0,1,7.56,2.34L522.35,572a11.93,11.93,0,0,0-5.81-2c-1.83,0-2.89.85-2.89,2v.08c0,1.52,2.23,2.15,4.65,2.93,3,.93,6.39,2.3,6.39,6v.08c0,4.33-3.35,6.48-7.64,6.48A14.48,14.48,0,0,1,508.31,584.54Z"/><path class="cls-1" d="M541.62,558.76h4.72v11a7.45,7.45,0,0,1,6.43-3.59c4.64,0,7.33,3.12,7.33,7.88v13.15h-4.72V575.53c0-3.19-1.59-5-4.4-5s-4.64,1.91-4.64,5.11v11.63h-4.72Z"/><path class="cls-1" d="M576.76,577.06V577a11,11,0,0,1,22-.08V577a10.76,10.76,0,0,1-11,10.72A10.64,10.64,0,0,1,576.76,577.06Zm17.23,0V577a6.36,6.36,0,0,0-6.31-6.63c-3.79,0-6.21,3-6.21,6.55V577a6.35,6.35,0,0,0,6.28,6.59A6.17,6.17,0,0,0,594,577.06Z"/><path class="cls-1" d="M615.6,566.64h4.72v3.43a8.26,8.26,0,0,1,7-3.86c4.84,0,9.55,3.83,9.55,10.69V577c0,6.82-4.67,10.68-9.55,10.68a8.41,8.41,0,0,1-7-3.62v9.44H615.6ZM632.1,577v-.08c0-4-2.69-6.59-5.89-6.59s-6,2.65-6,6.59V577c0,3.94,2.81,6.59,6,6.59S632.1,581,632.1,577Z"/><polygon class="cls-1" points="491.1 331.74 342.73 331.74 342.73 316.65 346.73 316.65 346.73 327.74 487.1 327.74 487.1 187.37 476.01 187.37 476.01 183.37 491.1 183.37 491.1 331.74"/><polygon class="cls-1" points="478.01 318.65 329.64 318.65 329.64 303.56 333.64 303.56 333.64 314.65 474.01 314.65 474.01 174.28 462.92 174.28 462.92 170.28 478.01 170.28 478.01 318.65"/><path class="cls-1" d="M333,205.46A16.51,16.51,0,0,1,316.52,189h4a12.49,12.49,0,1,0,25,0h4A16.51,16.51,0,0,1,333,205.46Z"/><path class="cls-1" d="M362,205.46A16.51,16.51,0,0,1,345.5,189h4a12.49,12.49,0,1,0,25,0h4A16.51,16.51,0,0,1,362,205.46Z"/><path class="cls-1" d="M391,205.46A16.51,16.51,0,0,1,374.48,189h4a12.49,12.49,0,1,0,25,0h4A16.51,16.51,0,0,1,391,205.46Z"/><path class="cls-1" d="M464.92,305.56H316.54V199.7a16.48,16.48,0,0,1-29-10.73v-.81l30.16-31H464.92Zm-144.38-4H460.92V161.19H319.39l-27.83,28.57a12.49,12.49,0,0,0,25-.79h4Z"/><path class="cls-1" d="M420,205.46A16.51,16.51,0,0,1,403.46,189h4a12.49,12.49,0,0,0,25,0v-.8l29-30.37,2.89,2.77-27.94,29.22A16.51,16.51,0,0,1,420,205.46Z"/><rect class="cls-1" x="289.54" y="186.97" width="144.91" height="4"/><polygon class="cls-1" points="405.46 303.56 401.46 303.56 401.46 246.44 376.48 246.44 376.48 303.56 372.48 303.56 372.48 242.44 405.46 242.44 405.46 303.56"/></svg>